<mxfile host="Electron" agent="Mozilla/5.0 (Windows NT 10.0; Win64; x64) AppleWebKit/537.36 (KHTML, like Gecko) draw.io/28.1.2 Chrome/138.0.7204.243 Electron/37.4.0 Safari/537.36" version="28.1.2">
  <diagram name="Page-1" id="byLsNhRZmfknhHtK-O-S">
    <mxGraphModel dx="2900" dy="1993" grid="1" gridSize="10" guides="1" tooltips="1" connect="1" arrows="1" fold="1" page="1" pageScale="1" pageWidth="827" pageHeight="1169" math="0" shadow="0">
      <root>
        <mxCell id="0" />
        <mxCell id="1" parent="0" />
        <mxCell id="5FWJqj-6B1nfI0Dg3H5g-1" value="Data-flow-diagram level 1: Purchase process" style="swimlane;whiteSpace=wrap;html=1;" vertex="1" parent="1">
          <mxGeometry x="-289" y="30" width="1490" height="850" as="geometry" />
        </mxCell>
        <mxCell id="5FWJqj-6B1nfI0Dg3H5g-2" value="Customer" style="rounded=0;whiteSpace=wrap;html=1;fillColor=#0050ef;fontColor=#ffffff;strokeColor=#001DBC;" vertex="1" parent="5FWJqj-6B1nfI0Dg3H5g-1">
          <mxGeometry x="40" y="60" width="120" height="60" as="geometry" />
        </mxCell>
        <mxCell id="5FWJqj-6B1nfI0Dg3H5g-31" value="Product catalogue" style="rounded=0;whiteSpace=wrap;html=1;fillColor=#0050ef;fontColor=#ffffff;strokeColor=#001DBC;" vertex="1" parent="5FWJqj-6B1nfI0Dg3H5g-1">
          <mxGeometry x="430" y="60" width="120" height="60" as="geometry" />
        </mxCell>
        <mxCell id="5FWJqj-6B1nfI0Dg3H5g-32" value="Admin" style="rounded=0;whiteSpace=wrap;html=1;fillColor=#0050ef;fontColor=#ffffff;strokeColor=#001DBC;" vertex="1" parent="5FWJqj-6B1nfI0Dg3H5g-1">
          <mxGeometry x="860" y="60" width="120" height="60" as="geometry" />
        </mxCell>
        <mxCell id="5FWJqj-6B1nfI0Dg3H5g-33" value="" style="endArrow=classic;html=1;rounded=0;exitX=1;exitY=0.5;exitDx=0;exitDy=0;entryX=0;entryY=0.5;entryDx=0;entryDy=0;" edge="1" parent="5FWJqj-6B1nfI0Dg3H5g-1" source="5FWJqj-6B1nfI0Dg3H5g-2" target="5FWJqj-6B1nfI0Dg3H5g-31">
          <mxGeometry width="50" height="50" relative="1" as="geometry">
            <mxPoint x="340" y="270" as="sourcePoint" />
            <mxPoint x="390" y="220" as="targetPoint" />
          </mxGeometry>
        </mxCell>
        <mxCell id="5FWJqj-6B1nfI0Dg3H5g-86" value="Browse" style="edgeLabel;html=1;align=center;verticalAlign=middle;resizable=0;points=[];" vertex="1" connectable="0" parent="5FWJqj-6B1nfI0Dg3H5g-33">
          <mxGeometry x="0.1249" y="-4" relative="1" as="geometry">
            <mxPoint x="-12" y="-20" as="offset" />
          </mxGeometry>
        </mxCell>
        <mxCell id="5FWJqj-6B1nfI0Dg3H5g-34" value="" style="endArrow=classic;html=1;rounded=0;exitX=0;exitY=0.5;exitDx=0;exitDy=0;" edge="1" parent="5FWJqj-6B1nfI0Dg3H5g-1" source="5FWJqj-6B1nfI0Dg3H5g-32" target="5FWJqj-6B1nfI0Dg3H5g-31">
          <mxGeometry width="50" height="50" relative="1" as="geometry">
            <mxPoint x="610" y="250" as="sourcePoint" />
            <mxPoint x="660" y="200" as="targetPoint" />
          </mxGeometry>
        </mxCell>
        <mxCell id="5FWJqj-6B1nfI0Dg3H5g-84" value="Update catalogue" style="edgeLabel;html=1;align=center;verticalAlign=middle;resizable=0;points=[];" vertex="1" connectable="0" parent="5FWJqj-6B1nfI0Dg3H5g-34">
          <mxGeometry x="0.0571" y="4" relative="1" as="geometry">
            <mxPoint x="7" y="-22" as="offset" />
          </mxGeometry>
        </mxCell>
        <mxCell id="5FWJqj-6B1nfI0Dg3H5g-35" value="Add product to cart" style="ellipse;whiteSpace=wrap;html=1;aspect=fixed;fillColor=#CC6600;" vertex="1" parent="5FWJqj-6B1nfI0Dg3H5g-1">
          <mxGeometry x="60" y="201" width="80" height="80" as="geometry" />
        </mxCell>
        <mxCell id="5FWJqj-6B1nfI0Dg3H5g-36" value="Shopping cart" style="rounded=0;whiteSpace=wrap;html=1;fillColor=#0050ef;fontColor=#ffffff;strokeColor=#001DBC;" vertex="1" parent="5FWJqj-6B1nfI0Dg3H5g-1">
          <mxGeometry x="40" y="353" width="120" height="60" as="geometry" />
        </mxCell>
        <mxCell id="5FWJqj-6B1nfI0Dg3H5g-37" value="View cart" style="ellipse;whiteSpace=wrap;html=1;aspect=fixed;fillColor=#CC6600;" vertex="1" parent="5FWJqj-6B1nfI0Dg3H5g-1">
          <mxGeometry x="310" y="340" width="80" height="80" as="geometry" />
        </mxCell>
        <mxCell id="5FWJqj-6B1nfI0Dg3H5g-39" value="Checkout" style="ellipse;whiteSpace=wrap;html=1;aspect=fixed;fillColor=#CC6600;" vertex="1" parent="5FWJqj-6B1nfI0Dg3H5g-1">
          <mxGeometry x="540" y="340" width="80" height="80" as="geometry" />
        </mxCell>
        <mxCell id="5FWJqj-6B1nfI0Dg3H5g-59" value="" style="edgeStyle=orthogonalEdgeStyle;rounded=0;orthogonalLoop=1;jettySize=auto;html=1;exitX=0.304;exitY=0.909;exitDx=0;exitDy=0;exitPerimeter=0;" edge="1" parent="5FWJqj-6B1nfI0Dg3H5g-1" source="5FWJqj-6B1nfI0Dg3H5g-41">
          <mxGeometry relative="1" as="geometry">
            <mxPoint x="814" y="500" as="targetPoint" />
          </mxGeometry>
        </mxCell>
        <mxCell id="5FWJqj-6B1nfI0Dg3H5g-76" value="Card status" style="edgeLabel;html=1;align=center;verticalAlign=middle;resizable=0;points=[];" vertex="1" connectable="0" parent="5FWJqj-6B1nfI0Dg3H5g-59">
          <mxGeometry x="0.1675" y="-4" relative="1" as="geometry">
            <mxPoint x="-31" y="-1" as="offset" />
          </mxGeometry>
        </mxCell>
        <mxCell id="5FWJqj-6B1nfI0Dg3H5g-41" value="Payment gateway" style="ellipse;whiteSpace=wrap;html=1;aspect=fixed;fillColor=#CC6600;" vertex="1" parent="5FWJqj-6B1nfI0Dg3H5g-1">
          <mxGeometry x="790" y="340" width="80" height="80" as="geometry" />
        </mxCell>
        <mxCell id="5FWJqj-6B1nfI0Dg3H5g-42" value="Bank company" style="rounded=0;whiteSpace=wrap;html=1;fillColor=#0050ef;fontColor=#ffffff;strokeColor=#001DBC;" vertex="1" parent="5FWJqj-6B1nfI0Dg3H5g-1">
          <mxGeometry x="770" y="505" width="120" height="60" as="geometry" />
        </mxCell>
        <mxCell id="5FWJqj-6B1nfI0Dg3H5g-43" value="Orders" style="rounded=0;whiteSpace=wrap;html=1;fillColor=#0050ef;fontColor=#ffffff;strokeColor=#001DBC;" vertex="1" parent="5FWJqj-6B1nfI0Dg3H5g-1">
          <mxGeometry x="1310" y="352" width="120" height="60" as="geometry" />
        </mxCell>
        <mxCell id="5FWJqj-6B1nfI0Dg3H5g-44" value="Order updated" style="ellipse;whiteSpace=wrap;html=1;aspect=fixed;fillColor=#CC6600;" vertex="1" parent="5FWJqj-6B1nfI0Dg3H5g-1">
          <mxGeometry x="1050" y="340" width="80" height="80" as="geometry" />
        </mxCell>
        <mxCell id="5FWJqj-6B1nfI0Dg3H5g-45" value="Issue order to shipping agent" style="ellipse;whiteSpace=wrap;html=1;aspect=fixed;fillColor=#CC6600;" vertex="1" parent="5FWJqj-6B1nfI0Dg3H5g-1">
          <mxGeometry x="1050" y="495" width="80" height="80" as="geometry" />
        </mxCell>
        <mxCell id="5FWJqj-6B1nfI0Dg3H5g-46" value="Shipping agent" style="rounded=0;whiteSpace=wrap;html=1;fillColor=#0050ef;fontColor=#ffffff;strokeColor=#001DBC;" vertex="1" parent="5FWJqj-6B1nfI0Dg3H5g-1">
          <mxGeometry x="1310" y="505" width="120" height="60" as="geometry" />
        </mxCell>
        <mxCell id="5FWJqj-6B1nfI0Dg3H5g-47" value="Email service" style="rounded=0;whiteSpace=wrap;html=1;fillColor=#0050ef;fontColor=#ffffff;strokeColor=#001DBC;" vertex="1" parent="5FWJqj-6B1nfI0Dg3H5g-1">
          <mxGeometry x="771" y="670" width="120" height="60" as="geometry" />
        </mxCell>
        <mxCell id="5FWJqj-6B1nfI0Dg3H5g-48" value="Send email to confirm" style="ellipse;whiteSpace=wrap;html=1;aspect=fixed;fillColor=#CC6600;" vertex="1" parent="5FWJqj-6B1nfI0Dg3H5g-1">
          <mxGeometry x="1050" y="660" width="80" height="80" as="geometry" />
        </mxCell>
        <mxCell id="5FWJqj-6B1nfI0Dg3H5g-49" value="" style="endArrow=classic;html=1;rounded=0;exitX=0.5;exitY=1;exitDx=0;exitDy=0;entryX=0.5;entryY=0;entryDx=0;entryDy=0;" edge="1" parent="5FWJqj-6B1nfI0Dg3H5g-1">
          <mxGeometry width="50" height="50" relative="1" as="geometry">
            <mxPoint x="90" y="120" as="sourcePoint" />
            <mxPoint x="90" y="201" as="targetPoint" />
          </mxGeometry>
        </mxCell>
        <mxCell id="5FWJqj-6B1nfI0Dg3H5g-68" value="Items" style="edgeLabel;html=1;align=center;verticalAlign=middle;resizable=0;points=[];" vertex="1" connectable="0" parent="5FWJqj-6B1nfI0Dg3H5g-49">
          <mxGeometry x="-0.0864" y="1" relative="1" as="geometry">
            <mxPoint x="-21" as="offset" />
          </mxGeometry>
        </mxCell>
        <mxCell id="5FWJqj-6B1nfI0Dg3H5g-50" value="" style="endArrow=classic;html=1;rounded=0;exitX=0.5;exitY=1;exitDx=0;exitDy=0;" edge="1" parent="5FWJqj-6B1nfI0Dg3H5g-1">
          <mxGeometry width="50" height="50" relative="1" as="geometry">
            <mxPoint x="99.28999999999999" y="279" as="sourcePoint" />
            <mxPoint x="99" y="350" as="targetPoint" />
          </mxGeometry>
        </mxCell>
        <mxCell id="5FWJqj-6B1nfI0Dg3H5g-70" value="Cart item" style="edgeLabel;html=1;align=center;verticalAlign=middle;resizable=0;points=[];" vertex="1" connectable="0" parent="5FWJqj-6B1nfI0Dg3H5g-50">
          <mxGeometry x="-0.0903" y="-2" relative="1" as="geometry">
            <mxPoint y="-1" as="offset" />
          </mxGeometry>
        </mxCell>
        <mxCell id="5FWJqj-6B1nfI0Dg3H5g-51" value="" style="endArrow=classic;html=1;rounded=0;exitX=1;exitY=0.5;exitDx=0;exitDy=0;entryX=0;entryY=0.5;entryDx=0;entryDy=0;" edge="1" parent="5FWJqj-6B1nfI0Dg3H5g-1" source="5FWJqj-6B1nfI0Dg3H5g-36" target="5FWJqj-6B1nfI0Dg3H5g-37">
          <mxGeometry width="50" height="50" relative="1" as="geometry">
            <mxPoint x="390" y="260" as="sourcePoint" />
            <mxPoint x="440" y="210" as="targetPoint" />
          </mxGeometry>
        </mxCell>
        <mxCell id="5FWJqj-6B1nfI0Dg3H5g-72" value="Cart item" style="edgeLabel;html=1;align=center;verticalAlign=middle;resizable=0;points=[];" vertex="1" connectable="0" parent="5FWJqj-6B1nfI0Dg3H5g-51">
          <mxGeometry x="0.4094" relative="1" as="geometry">
            <mxPoint x="-16" y="-1" as="offset" />
          </mxGeometry>
        </mxCell>
        <mxCell id="5FWJqj-6B1nfI0Dg3H5g-52" value="" style="endArrow=classic;html=1;rounded=0;exitX=1;exitY=0.5;exitDx=0;exitDy=0;entryX=0;entryY=0.5;entryDx=0;entryDy=0;" edge="1" parent="5FWJqj-6B1nfI0Dg3H5g-1">
          <mxGeometry width="50" height="50" relative="1" as="geometry">
            <mxPoint x="390" y="381.5" as="sourcePoint" />
            <mxPoint x="540" y="378.5" as="targetPoint" />
          </mxGeometry>
        </mxCell>
        <mxCell id="5FWJqj-6B1nfI0Dg3H5g-73" value="Item details" style="edgeLabel;html=1;align=center;verticalAlign=middle;resizable=0;points=[];" vertex="1" connectable="0" parent="5FWJqj-6B1nfI0Dg3H5g-52">
          <mxGeometry x="-0.0102" y="-3" relative="1" as="geometry">
            <mxPoint as="offset" />
          </mxGeometry>
        </mxCell>
        <mxCell id="5FWJqj-6B1nfI0Dg3H5g-53" value="" style="endArrow=classic;html=1;rounded=0;exitX=1;exitY=0.5;exitDx=0;exitDy=0;entryX=0;entryY=0.5;entryDx=0;entryDy=0;" edge="1" parent="5FWJqj-6B1nfI0Dg3H5g-1" target="5FWJqj-6B1nfI0Dg3H5g-41">
          <mxGeometry width="50" height="50" relative="1" as="geometry">
            <mxPoint x="621" y="381.5" as="sourcePoint" />
            <mxPoint x="771" y="379" as="targetPoint" />
          </mxGeometry>
        </mxCell>
        <mxCell id="5FWJqj-6B1nfI0Dg3H5g-54" value="" style="endArrow=classic;html=1;rounded=0;exitX=1;exitY=0.5;exitDx=0;exitDy=0;entryX=0;entryY=0.5;entryDx=0;entryDy=0;" edge="1" parent="5FWJqj-6B1nfI0Dg3H5g-1" target="5FWJqj-6B1nfI0Dg3H5g-44">
          <mxGeometry width="50" height="50" relative="1" as="geometry">
            <mxPoint x="870" y="381.5" as="sourcePoint" />
            <mxPoint x="1020" y="378.5" as="targetPoint" />
          </mxGeometry>
        </mxCell>
        <mxCell id="5FWJqj-6B1nfI0Dg3H5g-77" value="Order paid" style="edgeLabel;html=1;align=center;verticalAlign=middle;resizable=0;points=[];" vertex="1" connectable="0" parent="5FWJqj-6B1nfI0Dg3H5g-54">
          <mxGeometry x="-0.0739" y="8" relative="1" as="geometry">
            <mxPoint as="offset" />
          </mxGeometry>
        </mxCell>
        <mxCell id="5FWJqj-6B1nfI0Dg3H5g-55" value="" style="endArrow=classic;html=1;rounded=0;exitX=1;exitY=0.5;exitDx=0;exitDy=0;entryX=0;entryY=0.5;entryDx=0;entryDy=0;" edge="1" parent="5FWJqj-6B1nfI0Dg3H5g-1" target="5FWJqj-6B1nfI0Dg3H5g-43">
          <mxGeometry width="50" height="50" relative="1" as="geometry">
            <mxPoint x="1130" y="381.5" as="sourcePoint" />
            <mxPoint x="1280" y="378.5" as="targetPoint" />
          </mxGeometry>
        </mxCell>
        <mxCell id="5FWJqj-6B1nfI0Dg3H5g-79" value="Order details" style="edgeLabel;html=1;align=center;verticalAlign=middle;resizable=0;points=[];" vertex="1" connectable="0" parent="5FWJqj-6B1nfI0Dg3H5g-55">
          <mxGeometry x="0.0842" y="-4" relative="1" as="geometry">
            <mxPoint x="2" y="-16" as="offset" />
          </mxGeometry>
        </mxCell>
        <mxCell id="5FWJqj-6B1nfI0Dg3H5g-56" value="" style="endArrow=classic;html=1;rounded=0;exitX=1;exitY=0.5;exitDx=0;exitDy=0;entryX=0;entryY=0.5;entryDx=0;entryDy=0;" edge="1" parent="5FWJqj-6B1nfI0Dg3H5g-1" target="5FWJqj-6B1nfI0Dg3H5g-46">
          <mxGeometry width="50" height="50" relative="1" as="geometry">
            <mxPoint x="1130.0000000000005" y="535" as="sourcePoint" />
            <mxPoint x="1290" y="535" as="targetPoint" />
          </mxGeometry>
        </mxCell>
        <mxCell id="5FWJqj-6B1nfI0Dg3H5g-80" value="Issuing order" style="edgeLabel;html=1;align=center;verticalAlign=middle;resizable=0;points=[];" vertex="1" connectable="0" parent="5FWJqj-6B1nfI0Dg3H5g-56">
          <mxGeometry x="-0.0587" y="-2" relative="1" as="geometry">
            <mxPoint y="-17" as="offset" />
          </mxGeometry>
        </mxCell>
        <mxCell id="5FWJqj-6B1nfI0Dg3H5g-57" value="" style="endArrow=classic;html=1;rounded=0;entryX=0.5;entryY=0;entryDx=0;entryDy=0;" edge="1" parent="5FWJqj-6B1nfI0Dg3H5g-1">
          <mxGeometry width="50" height="50" relative="1" as="geometry">
            <mxPoint x="1089" y="420" as="sourcePoint" />
            <mxPoint x="1089.29" y="495" as="targetPoint" />
          </mxGeometry>
        </mxCell>
        <mxCell id="5FWJqj-6B1nfI0Dg3H5g-58" value="" style="endArrow=classic;html=1;rounded=0;entryX=0.5;entryY=0;entryDx=0;entryDy=0;" edge="1" parent="5FWJqj-6B1nfI0Dg3H5g-1" target="5FWJqj-6B1nfI0Dg3H5g-48">
          <mxGeometry width="50" height="50" relative="1" as="geometry">
            <mxPoint x="1089.29" y="575" as="sourcePoint" />
            <mxPoint x="1089.58" y="650" as="targetPoint" />
          </mxGeometry>
        </mxCell>
        <mxCell id="5FWJqj-6B1nfI0Dg3H5g-60" value="" style="endArrow=classic;html=1;rounded=0;exitX=1;exitY=0.5;exitDx=0;exitDy=0;entryX=0;entryY=0.5;entryDx=0;entryDy=0;" edge="1" parent="5FWJqj-6B1nfI0Dg3H5g-1" source="5FWJqj-6B1nfI0Dg3H5g-47" target="5FWJqj-6B1nfI0Dg3H5g-48">
          <mxGeometry width="50" height="50" relative="1" as="geometry">
            <mxPoint x="1000" y="730" as="sourcePoint" />
            <mxPoint x="1050" y="680" as="targetPoint" />
          </mxGeometry>
        </mxCell>
        <mxCell id="5FWJqj-6B1nfI0Dg3H5g-81" value="Order confirmation" style="edgeLabel;html=1;align=center;verticalAlign=middle;resizable=0;points=[];" vertex="1" connectable="0" parent="5FWJqj-6B1nfI0Dg3H5g-60">
          <mxGeometry x="-0.1087" y="4" relative="1" as="geometry">
            <mxPoint x="-1" y="-16" as="offset" />
          </mxGeometry>
        </mxCell>
        <mxCell id="5FWJqj-6B1nfI0Dg3H5g-82" value="Text" style="edgeLabel;html=1;align=center;verticalAlign=middle;resizable=0;points=[];" vertex="1" connectable="0" parent="5FWJqj-6B1nfI0Dg3H5g-60">
          <mxGeometry x="0.1069" y="4" relative="1" as="geometry">
            <mxPoint x="-1" as="offset" />
          </mxGeometry>
        </mxCell>
        <mxCell id="5FWJqj-6B1nfI0Dg3H5g-61" value="" style="endArrow=classic;html=1;rounded=0;exitX=0.5;exitY=0;exitDx=0;exitDy=0;entryX=0.417;entryY=1.021;entryDx=0;entryDy=0;entryPerimeter=0;" edge="1" parent="5FWJqj-6B1nfI0Dg3H5g-1" source="5FWJqj-6B1nfI0Dg3H5g-41" target="5FWJqj-6B1nfI0Dg3H5g-32">
          <mxGeometry width="50" height="50" relative="1" as="geometry">
            <mxPoint x="940" y="300" as="sourcePoint" />
            <mxPoint x="990" y="250" as="targetPoint" />
          </mxGeometry>
        </mxCell>
        <mxCell id="5FWJqj-6B1nfI0Dg3H5g-74" value="Billing information" style="edgeLabel;html=1;align=center;verticalAlign=middle;resizable=0;points=[];" vertex="1" connectable="0" parent="5FWJqj-6B1nfI0Dg3H5g-61">
          <mxGeometry x="0.0177" y="1" relative="1" as="geometry">
            <mxPoint as="offset" />
          </mxGeometry>
        </mxCell>
        <mxCell id="5FWJqj-6B1nfI0Dg3H5g-63" value="" style="endArrow=classic;html=1;rounded=0;exitX=1;exitY=0.25;exitDx=0;exitDy=0;entryX=0.5;entryY=0;entryDx=0;entryDy=0;" edge="1" parent="5FWJqj-6B1nfI0Dg3H5g-1" source="5FWJqj-6B1nfI0Dg3H5g-36" target="5FWJqj-6B1nfI0Dg3H5g-39">
          <mxGeometry width="50" height="50" relative="1" as="geometry">
            <mxPoint x="338.55999999999995" y="319.9999999999999" as="sourcePoint" />
            <mxPoint x="190" y="322.4" as="targetPoint" />
            <Array as="points">
              <mxPoint x="160" y="300" />
              <mxPoint x="360" y="300" />
              <mxPoint x="580" y="300" />
            </Array>
          </mxGeometry>
        </mxCell>
        <mxCell id="5FWJqj-6B1nfI0Dg3H5g-71" value="Item details" style="edgeLabel;html=1;align=center;verticalAlign=middle;resizable=0;points=[];" vertex="1" connectable="0" parent="5FWJqj-6B1nfI0Dg3H5g-63">
          <mxGeometry x="-0.0606" y="-1" relative="1" as="geometry">
            <mxPoint x="-1" as="offset" />
          </mxGeometry>
        </mxCell>
        <mxCell id="5FWJqj-6B1nfI0Dg3H5g-65" value="" style="endArrow=classic;html=1;rounded=0;entryX=0.661;entryY=1.034;entryDx=0;entryDy=0;entryPerimeter=0;" edge="1" parent="5FWJqj-6B1nfI0Dg3H5g-1" target="5FWJqj-6B1nfI0Dg3H5g-41">
          <mxGeometry width="50" height="50" relative="1" as="geometry">
            <mxPoint x="843" y="500" as="sourcePoint" />
            <mxPoint x="900" y="440" as="targetPoint" />
          </mxGeometry>
        </mxCell>
        <mxCell id="5FWJqj-6B1nfI0Dg3H5g-75" value="Bank card" style="edgeLabel;html=1;align=center;verticalAlign=middle;resizable=0;points=[];" vertex="1" connectable="0" parent="5FWJqj-6B1nfI0Dg3H5g-65">
          <mxGeometry x="0.0388" y="-3" relative="1" as="geometry">
            <mxPoint x="24" as="offset" />
          </mxGeometry>
        </mxCell>
        <mxCell id="5FWJqj-6B1nfI0Dg3H5g-66" value="" style="endArrow=classic;html=1;rounded=0;entryX=0.679;entryY=0.998;entryDx=0;entryDy=0;entryPerimeter=0;" edge="1" parent="5FWJqj-6B1nfI0Dg3H5g-1">
          <mxGeometry width="50" height="50" relative="1" as="geometry">
            <mxPoint x="110" y="200.12" as="sourcePoint" />
            <mxPoint x="111.48000000000002" y="120.00000000000011" as="targetPoint" />
          </mxGeometry>
        </mxCell>
        <mxCell id="5FWJqj-6B1nfI0Dg3H5g-67" value="Confirmation" style="edgeLabel;html=1;align=center;verticalAlign=middle;resizable=0;points=[];" vertex="1" connectable="0" parent="5FWJqj-6B1nfI0Dg3H5g-66">
          <mxGeometry x="0.078" y="-3" relative="1" as="geometry">
            <mxPoint x="26" as="offset" />
          </mxGeometry>
        </mxCell>
        <mxCell id="5FWJqj-6B1nfI0Dg3H5g-14" value="PG -" style="whiteSpace=wrap;html=1;" vertex="1" parent="1">
          <mxGeometry x="301" y="-239" width="80" height="30" as="geometry" />
        </mxCell>
        <mxCell id="5FWJqj-6B1nfI0Dg3H5g-15" value=" CP : Payment success/fail" style="whiteSpace=wrap;html=1;" vertex="1" parent="1">
          <mxGeometry x="361" y="-369" width="160" height="30" as="geometry" />
        </mxCell>
        <mxCell id="5FWJqj-6B1nfI0Dg3H5g-16" value="" style="rounded=0;" edge="1" source="5FWJqj-6B1nfI0Dg3H5g-14" target="5FWJqj-6B1nfI0Dg3H5g-15" parent="1">
          <mxGeometry relative="1" as="geometry" />
        </mxCell>
        <mxCell id="5FWJqj-6B1nfI0Dg3H5g-19" value="OP " style="whiteSpace=wrap;html=1;" vertex="1" parent="1">
          <mxGeometry x="-289" y="-689" width="80" height="30" as="geometry" />
        </mxCell>
        <mxCell id="5FWJqj-6B1nfI0Dg3H5g-20" value=" ORD : Save order" style="whiteSpace=wrap;html=1;" vertex="1" parent="1">
          <mxGeometry x="-239" y="-489" width="120" height="30" as="geometry" />
        </mxCell>
        <mxCell id="5FWJqj-6B1nfI0Dg3H5g-21" value="" style="rounded=0;" edge="1" source="5FWJqj-6B1nfI0Dg3H5g-19" target="5FWJqj-6B1nfI0Dg3H5g-20" parent="1">
          <mxGeometry relative="1" as="geometry" />
        </mxCell>
        <mxCell id="5FWJqj-6B1nfI0Dg3H5g-22" value=" INV : Update stock" style="whiteSpace=wrap;html=1;" vertex="1" parent="1">
          <mxGeometry x="-379" y="-899" width="120" height="30" as="geometry" />
        </mxCell>
        <mxCell id="5FWJqj-6B1nfI0Dg3H5g-23" value="" style="rounded=0;" edge="1" source="5FWJqj-6B1nfI0Dg3H5g-19" target="5FWJqj-6B1nfI0Dg3H5g-22" parent="1">
          <mxGeometry relative="1" as="geometry" />
        </mxCell>
        <mxCell id="5FWJqj-6B1nfI0Dg3H5g-24" value=" SP : Send fulfillment info" style="whiteSpace=wrap;html=1;" vertex="1" parent="1">
          <mxGeometry x="-119" y="-769" width="150" height="30" as="geometry" />
        </mxCell>
        <mxCell id="5FWJqj-6B1nfI0Dg3H5g-25" value="" style="rounded=0;" edge="1" source="5FWJqj-6B1nfI0Dg3H5g-19" target="5FWJqj-6B1nfI0Dg3H5g-24" parent="1">
          <mxGeometry relative="1" as="geometry" />
        </mxCell>
        <mxCell id="5FWJqj-6B1nfI0Dg3H5g-26" value=" ES : Send order confirmation" style="whiteSpace=wrap;html=1;" vertex="1" parent="1">
          <mxGeometry x="-539" y="-629" width="180" height="30" as="geometry" />
        </mxCell>
        <mxCell id="5FWJqj-6B1nfI0Dg3H5g-27" value="" style="rounded=0;" edge="1" source="5FWJqj-6B1nfI0Dg3H5g-19" target="5FWJqj-6B1nfI0Dg3H5g-26" parent="1">
          <mxGeometry relative="1" as="geometry" />
        </mxCell>
        <mxCell id="5FWJqj-6B1nfI0Dg3H5g-28" value="ES -" style="whiteSpace=wrap;html=1;" vertex="1" parent="1">
          <mxGeometry x="-1059" y="-749" width="80" height="30" as="geometry" />
        </mxCell>
        <mxCell id="5FWJqj-6B1nfI0Dg3H5g-29" value=" Customer : Email" style="whiteSpace=wrap;html=1;" vertex="1" parent="1">
          <mxGeometry x="-1019" y="-909" width="120" height="30" as="geometry" />
        </mxCell>
        <mxCell id="5FWJqj-6B1nfI0Dg3H5g-30" value="" style="rounded=0;" edge="1" source="5FWJqj-6B1nfI0Dg3H5g-28" target="5FWJqj-6B1nfI0Dg3H5g-29" parent="1">
          <mxGeometry relative="1" as="geometry" />
        </mxCell>
      </root>
    </mxGraphModel>
  </diagram>
</mxfile>
